<?xml version="1.0" encoding="UTF-8"?>
<svg xmlns="http://www.w3.org/2000/svg" xmlns:xlink="http://www.w3.org/1999/xlink" width="48px" height="48px" viewBox="0 0 48 48" version="1.1">
<defs>
<linearGradient id="linear0" gradientUnits="userSpaceOnUse" x1="16" y1="2" x2="16" y2="30" gradientTransform="matrix(1.5,0,0,1.5,0,0)">
<stop offset="0" style="stop-color:rgb(21.568627%,73.333333%,99.607843%);stop-opacity:1;"/>
<stop offset="1" style="stop-color:rgb(0%,49.019608%,73.333333%);stop-opacity:1;"/>
</linearGradient>
</defs>
<g id="surface1">
<path style=" stroke:none;fill-rule:nonzero;fill:url(#linear0);" d="M 45 24 C 45 12.402344 35.597656 3 24 3 C 12.402344 3 3 12.402344 3 24 C 3 35.597656 12.402344 45 24 45 C 35.597656 45 45 35.597656 45 24 Z M 45 24 "/>
<path style=" stroke:none;fill-rule:nonzero;fill:rgb(100%,100%,100%);fill-opacity:1;" d="M 34.480469 15.3125 C 34.667969 14.105469 33.519531 13.152344 32.445312 13.621094 L 11.046875 23.015625 C 10.277344 23.355469 10.332031 24.523438 11.132812 24.777344 L 15.542969 26.183594 C 16.386719 26.449219 17.296875 26.3125 18.035156 25.804688 L 27.984375 18.929688 C 28.28125 18.722656 28.609375 19.148438 28.351562 19.414062 L 21.191406 26.796875 C 20.496094 27.511719 20.636719 28.726562 21.472656 29.25 L 29.488281 34.277344 C 30.386719 34.84375 31.542969 34.277344 31.710938 33.1875 Z M 34.480469 15.3125 "/>
</g>
</svg>
