<?xml version="1.0" encoding="UTF-8"?>
<svg xmlns="http://www.w3.org/2000/svg" xmlns:xlink="http://www.w3.org/1999/xlink" width="48px" height="48px" viewBox="0 0 48 48" version="1.1">
<g id="surface1">
<path style=" stroke:none;fill-rule:nonzero;fill:rgb(0%,46.666667%,100%);fill-opacity:1;" d="M 23.019531 48.019531 L 25.023438 48.019531 C 35.902344 48.019531 41.324219 48.019531 44.683594 44.660156 C 48.023438 41.300781 48.023438 35.859375 48.023438 25.019531 L 48.023438 22.976562 C 48.023438 12.175781 48.023438 6.738281 44.683594 3.378906 C 41.324219 0.0195312 35.886719 0.0195312 25.023438 0.0195312 L 23.019531 0.0195312 C 12.140625 0.0195312 6.71875 0.0195312 3.359375 3.378906 C 0.0234375 6.738281 0.0234375 12.183594 0.0234375 23.019531 L 0.0234375 25.0625 C 0.0234375 35.859375 0.0234375 41.300781 3.382812 44.660156 C 6.742188 48.019531 12.183594 48.019531 23.019531 48.019531 Z M 23.019531 48.019531 "/>
<path style=" stroke:none;fill-rule:nonzero;fill:rgb(100%,100%,100%);fill-opacity:1;" d="M 25.566406 34.597656 C 14.625 34.597656 8.386719 27.101562 8.125 14.621094 L 13.609375 14.621094 C 13.789062 23.777344 17.828125 27.664062 21.027344 28.460938 L 21.027344 14.621094 L 26.1875 14.621094 L 26.1875 22.523438 C 29.347656 22.179688 32.667969 18.582031 33.789062 14.621094 L 38.945312 14.621094 C 38.09375 18.773438 35.546875 22.382812 31.925781 24.582031 C 35.972656 26.59375 38.960938 30.238281 40.140625 34.597656 L 34.464844 34.597656 C 33.394531 30.769531 30.128906 27.957031 26.183594 27.457031 L 26.183594 34.597656 C 26.183594 34.597656 25.566406 34.597656 25.566406 34.597656 Z M 25.566406 34.597656 "/>
</g>
</svg>
